<svg id="Layer_1" data-name="Layer 1" xmlns="http://www.w3.org/2000/svg" viewBox="0 0 18 23">
    <title>
        bookmark
    </title>
    <polyline points="1 0 1 22 9 17 17 22 17 0" style="stroke:#000;stroke-linejoin:round;stroke-width:2px"/>
    <path d="M9.87,8.34a.13.13,0,0,0,0-.11L7.75,6.16l2.87-.43a.12.12,0,0,0,.09-.07L12,3l1.28,2.66a.12.12,0,0,0,.09.07l2.87.43L14.16,8.23a.12.12,0,0,0,0,.11l.49,2.93L12.05,9.89l-.06,0-.06,0L9.38,11.27Z" transform="translate(-3)" style="fill:#fff"/>
    <path d="M12,3.29l1.17,2.42a.25.25,0,0,0,.19.14L16,6.25l-1.9,1.9a.25.25,0,0,0-.07.22L14.45,11,12.11,9.78a.25.25,0,0,0-.24,0L9.54,11,10,8.36a.25.25,0,0,0-.07-.22L8,6.25l2.62-.39a.25.25,0,0,0,.19-.14L12,3.29m0-.58L10.6,5.61l-3.11.46L9.74,8.32,9.21,11.5,12,10l2.78,1.5-.53-3.18L16.5,6.07l-3.11-.46L12,2.72Z" transform="translate(-3)"/>
</svg>
